<svg height="512" viewBox="0 0 64 64" width="512" xmlns="http://www.w3.org/2000/svg"><g fill="#ff7956"><circle cx="17" cy="54" r="2"/><circle cx="27" cy="54" r="2"/><circle cx="37" cy="54" r="2"/><circle cx="47" cy="54" r="2"/><circle cx="47" cy="10" r="2"/><circle cx="37" cy="10" r="2"/><circle cx="27" cy="10" r="2"/><circle cx="17" cy="10" r="2"/></g><path d="m61 12v40a2.006 2.006 0 0 1 -2 2h-10a2 2 0 0 0 -4 0h-6a2 2 0 0 0 -4 0h-6a2 2 0 0 0 -4 0h-6a2 2 0 0 0 -4 0h-10a2.006 2.006 0 0 1 -2-2v-40a2.006 2.006 0 0 1 2-2h10a2 2 0 0 0 4 0h6a2 2 0 0 0 4 0h6a2 2 0 0 0 4 0h6a2 2 0 0 0 4 0h10a2.006 2.006 0 0 1 2 2z" fill="#ffeb99"/><path d="m42 24v4l-6-6h4 2z" fill="#ff7956"/><path d="m42 40v2h-2-4-4-4-4-2v-2-4-4-4-4-2h2 4 4 4l6 6v4 4z" fill="#57a4ff"/><path d="m43 22a1 1 0 0 0 -1-1h-1v-5h-2v5h-2v-5h-2v5h-2v-5h-2v5h-2v-5h-2v5h-2v-5h-2v5h-1a1 1 0 0 0 -1 1v1h-5v2h5v2h-5v2h5v2h-5v2h5v2h-5v2h5v2h-5v2h5v1a1 1 0 0 0 1 1h1v5h2v-5h2v5h2v-5h2v5h2v-5h2v5h2v-5h2v5h2v-5h1a1 1 0 0 0 1-1v-1h5v-2h-5v-2h5v-2h-5v-2h5v-2h-5v-2h5v-2h-5v-2h5v-2h-5zm-2 3.586-2.586-2.586h2.586zm-18 15.414v-18h12.586l5.414 5.414v12.586z"/><path d="m59 9h-1v-3h2a1 1 0 0 0 1-1v-3h-2v2h-2a1 1 0 0 0 -1 1v4h-6.184a3 3 0 0 0 -1.816-1.816v-2.184a1 1 0 0 0 -1-1h-4v-2h-2v3a1 1 0 0 0 1 1h4v1.184a3 3 0 0 0 -1.816 1.816h-4.368a3 3 0 0 0 -1.816-1.816v-2.184a1 1 0 0 0 -1-1h-1v-2h-2v3a1 1 0 0 0 1 1h1v1.184a3 3 0 0 0 -1.816 1.816h-4.368a3 3 0 0 0 -1.816-1.816v-1.184h2a1 1 0 0 0 1-1v-3h-2v2h-2a1 1 0 0 0 -1 1v2.184a3 3 0 0 0 -1.816 1.816h-4.368a3 3 0 0 0 -1.816-1.816v-2.184a1 1 0 0 0 -1-1h-5v-2h-2v3a1 1 0 0 0 1 1h5v1.184a3 3 0 0 0 -1.816 1.816h-6.184v-6a1 1 0 0 0 -1-1h-5v2h4v5h-1a3 3 0 0 0 -3 3v40a3 3 0 0 0 3 3h1v5h-4v2h5a1 1 0 0 0 1-1v-6h6.184a3 3 0 0 0 1.816 1.816v1.184h-5a1 1 0 0 0 -1 1v3h2v-2h5a1 1 0 0 0 1-1v-2.184a3 3 0 0 0 1.816-1.816h4.368a3 3 0 0 0 1.816 1.816v2.184a1 1 0 0 0 1 1h2v2h2v-3a1 1 0 0 0 -1-1h-2v-1.184a3 3 0 0 0 1.816-1.816h4.368a3 3 0 0 0 1.816 1.816v1.184h-1a1 1 0 0 0 -1 1v3h2v-2h1a1 1 0 0 0 1-1v-2.184a3 3 0 0 0 1.816-1.816h4.368a3 3 0 0 0 1.816 1.816v1.184h-4a1 1 0 0 0 -1 1v3h2v-2h4a1 1 0 0 0 1-1v-2.184a3 3 0 0 0 1.816-1.816h6.184v4a1 1 0 0 0 1 1h2v2h2v-3a1 1 0 0 0 -1-1h-2v-3h1a3 3 0 0 0 3-3v-40a3 3 0 0 0 -3-3zm-12 0a1 1 0 1 1 -1 1 1 1 0 0 1 1-1zm-10 0a1 1 0 1 1 -1 1 1 1 0 0 1 1-1zm-10 0a1 1 0 1 1 -1 1 1 1 0 0 1 1-1zm-10 0a1 1 0 1 1 -1 1 1 1 0 0 1 1-1zm0 46a1 1 0 1 1 1-1 1 1 0 0 1 -1 1zm10 0a1 1 0 1 1 1-1 1 1 0 0 1 -1 1zm10 0a1 1 0 1 1 1-1 1 1 0 0 1 -1 1zm10 0a1 1 0 1 1 1-1 1 1 0 0 1 -1 1zm13-3a1 1 0 0 1 -1 1h-9.184a2.982 2.982 0 0 0 -5.632 0h-4.368a2.982 2.982 0 0 0 -5.632 0h-4.368a2.982 2.982 0 0 0 -5.632 0h-4.368a2.982 2.982 0 0 0 -5.632 0h-9.184a1 1 0 0 1 -1-1v-40a1 1 0 0 1 1-1h9.184a2.982 2.982 0 0 0 5.632 0h4.368a2.982 2.982 0 0 0 5.632 0h4.368a2.982 2.982 0 0 0 5.632 0h4.368a2.982 2.982 0 0 0 5.632 0h9.184a1 1 0 0 1 1 1z"/></svg>