<?xml version="1.0" standalone="no"?>
<!DOCTYPE svg PUBLIC "-//W3C//DTD SVG 20010904//EN"
 "http://www.w3.org/TR/2001/REC-SVG-20010904/DTD/svg10.dtd">
<svg version="1.0" xmlns="http://www.w3.org/2000/svg"
 width="400.000000pt" height="400.000000pt" viewBox="0 0 400.000000 400.000000"
 preserveAspectRatio="xMidYMid meet">
<metadata>
Created by potrace 1.11, written by Peter Selinger 2001-2013
</metadata>
<g transform="translate(0.000000,400.000000) scale(0.100000,-0.100000)"
fill="#000000" stroke="none">
<path d="M1368 2491 c-200 -64 -318 -231 -318 -450 0 -142 34 -231 125 -330
133 -143 347 -182 523 -95 72 35 182 130 182 157 0 15 -171 187 -186 187 -6 0
-23 -18 -38 -40 -28 -42 -95 -83 -127 -78 -16 2 16 46 166 226 102 123 185
228 185 234 0 22 -63 89 -121 127 -116 78 -267 101 -391 62z m136 -263 c-4 -7
-46 -64 -93 -127 l-86 -115 -3 49 c-6 85 30 150 103 188 37 20 90 23 79 5z"/>
<path d="M2258 2491 c-229 -74 -363 -309 -314 -551 10 -46 29 -106 43 -133 54
-107 172 -198 293 -226 55 -13 162 -14 213 -2 34 8 36 7 25 -7 -24 -29 -76
-42 -168 -42 l-90 0 0 -135 0 -135 88 0 c251 0 434 137 487 364 12 53 15 137
13 458 l-3 393 -43 3 c-35 3 -46 -1 -61 -20 -10 -13 -28 -34 -39 -48 l-20 -25
-24 21 c-100 91 -269 127 -400 85z m213 -274 c98 -52 133 -181 76 -279 -38
-65 -78 -91 -148 -96 -115 -8 -191 71 -191 199 0 155 133 244 263 176z"/>
</g>
</svg>
